<?xml version="1.0" standalone="no"?>
<!DOCTYPE svg PUBLIC "-//W3C//DTD SVG 20010904//EN"
 "http://www.w3.org/TR/2001/REC-SVG-20010904/DTD/svg10.dtd">
<svg version="1.0" xmlns="http://www.w3.org/2000/svg"
 width="210.000000pt" height="210.000000pt" viewBox="0 0 210.000000 210.000000"
 preserveAspectRatio="xMidYMid meet">
<metadata>
Created by potrace 1.11, written by Peter Selinger 2001-2013
</metadata>
<g transform="translate(0.000000,210.000000) scale(0.100000,-0.100000)"
fill="#000000" stroke="none">
<path d="M927 1884 c-2 -2 -23 -6 -48 -9 -194 -23 -474 -104 -576 -166 -50
-31 -75 -142 -75 -334 1 -117 0 -121 -28 -156 -50 -63 -121 -221 -106 -236 3
-3 9 3 12 13 10 25 113 144 186 214 l58 55 1 127 c1 70 6 148 11 173 9 44 13
49 62 70 46 20 160 59 209 71 9 2 25 6 35 8 310 79 466 75 812 -19 69 -18 157
-36 195 -40 39 -3 78 -8 87 -11 51 -15 59 -14 52 9 -3 12 -12 28 -18 36 -19
25 -150 80 -274 115 -103 30 -148 40 -267 62 -14 2 -37 7 -52 10 -32 6 -271
13 -276 8z"/>
<path d="M1415 1582 c-73 -3 -262 -31 -323 -47 -46 -11 -54 -11 -59 1 -7 20
-39 17 -121 -10 -90 -31 -101 -37 -115 -66 -8 -15 -50 -43 -115 -76 -210 -107
-372 -235 -504 -398 -38 -48 -64 -91 -100 -169 l-17 -38 29 21 c16 12 32 26
36 31 11 19 200 155 287 208 115 69 365 193 380 188 7 -2 35 -68 63 -147 61
-172 77 -191 146 -171 74 21 212 73 236 87 33 21 29 61 -25 217 -30 89 -43
141 -37 147 22 22 317 81 489 99 50 5 150 8 223 7 72 0 132 0 132 1 0 13 -205
86 -275 98 -80 13 -245 22 -330 17z"/>
<path d="M1755 1380 c-26 -5 -29 -9 -31 -45 -10 -183 -15 -244 -29 -315 -3
-14 -7 -36 -10 -50 -6 -35 -57 -152 -72 -168 -7 -7 -13 -20 -13 -28 0 -8 -4
-14 -9 -14 -5 0 -12 -8 -15 -17 -3 -10 -22 -35 -41 -56 -19 -21 -35 -40 -35
-42 0 -9 -114 -110 -121 -108 -5 2 -9 -1 -9 -5 0 -23 -190 -131 -290 -166 -42
-14 -46 -14 -120 15 -134 51 -245 124 -352 231 -54 53 -98 104 -98 113 0 8 -4
15 -10 15 -5 0 -10 7 -10 15 0 8 -4 15 -8 15 -5 0 -26 36 -46 80 -21 44 -40
80 -43 80 -3 0 -80 -50 -101 -66 -7 -4 61 -139 81 -161 11 -13 17 -23 13 -23
-5 0 5 -15 20 -34 16 -19 36 -43 44 -54 69 -92 193 -190 330 -261 36 -19 68
-39 72 -45 4 -6 8 -8 8 -4 0 4 39 -7 86 -24 l85 -31 57 17 c171 53 356 163
469 278 78 80 113 118 108 118 -3 0 15 30 39 68 66 103 108 225 121 350 19
177 26 322 16 323 -30 4 -61 3 -86 -1z"/>
<path d="M1145 899 c-44 -17 -93 -35 -108 -41 -22 -9 -28 -16 -24 -32 5 -24
128 -379 133 -385 6 -7 130 58 176 94 38 29 45 39 40 57 -29 99 -119 338 -127
337 -5 0 -46 -14 -90 -30z"/>
</g>
</svg>
